<?xml version="1.0" encoding="UTF-8"?><svg id="Layer_2" xmlns="http://www.w3.org/2000/svg" viewBox="0 0 694.32 1071.49"><defs><style>.cls-1{font-family:ChalkboardSE-Regular, 'Chalkboard SE';font-size:120.82px;}.cls-2,.cls-3,.cls-4,.cls-5,.cls-6{stroke-miterlimit:10;}.cls-2,.cls-6{stroke:#000;}.cls-7{fill:#eee9e3;}.cls-8{fill:#804629;}.cls-9{fill:#dea420;}.cls-10{fill:#ddaa27;}.cls-11{fill:#d1c8bd;}.cls-12{fill:#dec6a4;}.cls-13{fill:#a2a1a5;}.cls-3{fill:red;stroke:red;}.cls-4{fill:#ff0;stroke:#ff0;}.cls-5{fill:#bd272d;stroke:#bd272d;}.cls-6{fill:none;}</style></defs><g id="Layer_1-2"><g><path class="cls-9" d="M248.79,163.08s27-38,25-60-8-61.96,35-95.98c0,0,62-32.02,91,39.98,0,0,9,32,4,60,0,0,5,25,26,56,0,0-22,10-41-10,0,0-37,2-48.5-26,0,0-16.5,30-49.5,26,0,0-21,21-42,10Z"/><ellipse class="cls-12" cx="340.29" cy="75.58" rx="47.5" ry="51.5"/><ellipse class="cls-3" cx="314.79" cy="100.58" rx="6" ry="5.5"/><ellipse class="cls-3" cx="365.79" cy="100.58" rx="6" ry="5.5"/><path class="cls-6" d="M332.79,80.08s-9.83-12.51-18.5-2.9c-.5,.56-1,1.19-1.5,1.9l-3.06-2.26"/><line class="cls-6" x1="311.79" y1="75.08" x2="314.29" y2="77.17"/><line class="cls-6" x1="315.84" y1="75.7" x2="313.72" y2="73.55"/><line class="cls-6" x1="317.43" y1="74.62" x2="315.84" y2="72.85"/><path class="cls-6" d="M316.28,75.36v5.47s4.75,10.75,12.63,0l.55-4.02"/><ellipse class="cls-2" cx="324.29" cy="77.08" rx="1.5" ry="1" transform="translate(8.92 184.99) rotate(-32.26)"/><path class="cls-6" d="M347.74,80.08s9.83-12.51,18.5-2.9c.5,.56,1,1.19,1.5,1.9l3.06-2.26"/><line class="cls-6" x1="368.74" y1="75.08" x2="366.24" y2="77.17"/><line class="cls-6" x1="364.69" y1="75.7" x2="366.81" y2="73.55"/><line class="cls-6" x1="363.1" y1="74.62" x2="364.69" y2="72.85"/><path class="cls-6" d="M364.25,75.36v5.47s-4.75,10.75-12.63,0l-.55-4.02"/><ellipse class="cls-2" cx="360.24" cy="77.08" rx="1.5" ry="1" transform="translate(51.01 277.3) rotate(-45)"/><path d="M387.63,71.35c-14.16-2.73-17.84-17.27-17.84-17.27-14,4-20-9-20-9-18,7-30-7-30-7,1,15-15,23-15,23,5,17-10.75,26.26-10.75,26.26,0,0-10.25-57.26,46.25-63.26,0,0,38.99-1.71,47.25,46.14l.1,1.13Z"/><polygon class="cls-3" points="333.79 108.08 337.79 112.08 342.79 112.08 346.79 108.08 342.79 106.08 340.29 107.43 337.79 106.08 333.79 108.08"/><path class="cls-5" d="M340.29,127.08s-15.5,30-49.5,26c0,0-14,19-42,11,0,0-51,85,14,187,0,0,75.34,7,152.17,0,0,0,66.83-90,14.83-188,0,0-23,12-41-10,0,0-33,5-48.5-26Z"/><ellipse class="cls-4" cx="339.79" cy="130.08" rx="4" ry="3"/><path class="cls-6" d="M311.29,68.58s11-6,20-1"/><path class="cls-6" d="M348.29,69.58s11-6,20-1"/><polygon class="cls-13" points="440.07 164.84 445.9 154.08 470.15 146.63 491.29 107.58 445.27 83.41 425.55 121.76 432.72 147.78 427.65 158.11 440.07 164.84"/><path class="cls-11" d="M472.18,110.32s5.69-2.36,5.92,3.2l-11.64,23.1s-5.15,.47-5.59-3.03l11.31-23.28Z"/><path class="cls-11" d="M459.75,103.59s5.69-2.36,5.92,3.2l-11.64,23.1s-5.15,.47-5.59-3.03l11.31-23.28Z"/><path class="cls-11" d="M448.03,96.52s5.69-2.36,5.92,3.2l-11.64,23.1s-5.15,.47-5.59-3.03l11.31-23.28Z"/><g><polygon class="cls-8" points="426.59 157.18 441.22 165.09 391.14 262.9 374.3 253.78 426.59 157.18"/><ellipse class="cls-10" cx="431.07" cy="166.14" rx="1.28" ry="1.82" transform="translate(79.74 466.13) rotate(-61.57)"/><ellipse class="cls-10" cx="423.72" cy="180.68" rx="1.28" ry="1.82" transform="translate(63.1 467.28) rotate(-61.57)"/></g><g><polygon class="cls-8" points="234.26 160.68 252.79 150.64 319.96 267.83 298.63 279.4 234.26 160.68"/><ellipse class="cls-10" cx="246.77" cy="161.93" rx="2.31" ry="1.57" transform="translate(-47.35 137.19) rotate(-28.46)"/><ellipse class="cls-10" cx="256.82" cy="179.26" rx="2.31" ry="1.57" transform="translate(-54.39 144.07) rotate(-28.46)"/></g><path class="cls-13" d="M209.01,69.43l23.19,42.78s4.42,21.29,6.45,21.09c0,0,7.3,13.46,11.72,13.74l2.07,3.79-18.18,9.86s-2.62-27.16-16.3-32.69l-25.49-49.59,25.58,37.93s6.85,3.43,8.26-4.48l-17.3-42.42Z"/><polygon class="cls-7" points="229.77 237.6 244.29 237.58 449.6 235.53 449.47 248.41 430.89 248.41 401.29 325.58 273.09 325.58 244.29 249.58 229.88 249.89 229.77 237.6"/></g><text class="cls-1" transform="translate(136.88 449.59) rotate(-34.78) scale(.47 1)"><tspan x="0" y="0">B</tspan></text><text class="cls-1" transform="translate(162.2 432.1) rotate(-30.35) scale(.47 1)"><tspan x="0" y="0">I</tspan></text><text class="cls-1" transform="translate(182.38 420.02) rotate(-25.82) scale(.47 1)"><tspan x="0" y="0">S</tspan></text><text class="cls-1" transform="translate(210.74 406.23) rotate(-20.7) scale(.47 1)"><tspan x="0" y="0">T</tspan></text><text class="cls-1" transform="translate(239.16 395.33) rotate(-15.41) scale(.47 1)"><tspan x="0" y="0">R</tspan></text><text class="cls-1" transform="translate(270.16 386.46) rotate(-9.62) scale(.47 1)"><tspan x="0" y="0">O</tspan></text><text class="cls-1" transform="translate(309.09 380.21) rotate(-4.73) scale(.47 1)"><tspan x="0" y="0"> </tspan></text><text class="cls-1" transform="translate(329.23 378.3) rotate(-.54) scale(.47 1)"><tspan x="0" y="0">B</tspan></text><text class="cls-1" transform="translate(359.75 377.83) rotate(4.82) scale(.47 1)"><tspan x="0" y="0">A</tspan></text><text class="cls-1" transform="translate(394.33 380.75) rotate(10.16) scale(.47 1)"><tspan x="0" y="0">B</tspan></text><text class="cls-1" transform="translate(423.31 385.7) rotate(15.4) scale(.47 1)"><tspan x="0" y="0">U</tspan></text><text class="cls-1" transform="translate(457.38 395.08) rotate(20.91) scale(.47 1)"><tspan x="0" y="0">S</tspan></text><text class="cls-1" transform="translate(486.8 406.18) rotate(26.29) scale(.47 1)"><tspan x="0" y="0">H</tspan></text><text class="cls-1" transform="translate(516.75 420.93) rotate(31.68) scale(.47 1)"><tspan x="0" y="0">K</tspan></text><text class="cls-1" transform="translate(543.41 437.17) rotate(37.19) scale(.47 1)"><tspan x="0" y="0">A</tspan></text></g></svg>