<?xml version="1.0" encoding="UTF-8"?><svg id="Layer_2" xmlns="http://www.w3.org/2000/svg" viewBox="0 0 794.11 406.86"><defs><style>.cls-1,.cls-2,.cls-3,.cls-4,.cls-5,.cls-6{stroke-miterlimit:10;}.cls-1,.cls-6{stroke:#000;}.cls-2{stroke:#fff;}.cls-7{fill:#eee9e3;}.cls-8{fill:#804629;}.cls-9{fill:#dea420;}.cls-10{fill:#ddaa27;}.cls-11{fill:#dec6a4;}.cls-12{fill:#a2a1a5;}.cls-3{fill:red;stroke:red;}.cls-4{fill:#ff0;stroke:#ff0;}.cls-5{fill:#bd272d;stroke:#bd272d;}.cls-6{fill:none;}</style></defs><g id="Layer_1-2"><path class="cls-9" d="M289.74,163.08s27-38,25-60-8-61.96,35-95.98c0,0,62-32.02,91,39.98,0,0,9,32,4,60,0,0,5,25,26,56,0,0-22,10-41-10,0,0-37,2-48.5-26,0,0-16.5,30-49.5,26,0,0-21,21-42,10Z"/><ellipse class="cls-11" cx="381.24" cy="75.58" rx="47.5" ry="51.5"/><ellipse class="cls-3" cx="355.74" cy="100.58" rx="6" ry="5.5"/><ellipse class="cls-3" cx="406.74" cy="100.58" rx="6" ry="5.5"/><path class="cls-6" d="M373.74,80.08s-9.83-12.51-18.5-2.9c-.5,.56-1,1.19-1.5,1.9l-3.06-2.26"/><line class="cls-6" x1="352.74" y1="75.08" x2="355.24" y2="77.17"/><line class="cls-6" x1="356.79" y1="75.7" x2="354.67" y2="73.55"/><line class="cls-6" x1="358.38" y1="74.62" x2="356.79" y2="72.85"/><path class="cls-6" d="M357.23,75.36v5.47s4.75,10.75,12.63,0l.55-4.02"/><ellipse class="cls-1" cx="365.24" cy="77.08" rx="1.5" ry="1" transform="translate(15.24 206.84) rotate(-32.26)"/><path class="cls-6" d="M388.69,80.08s9.83-12.51,18.5-2.9c.5,.56,1,1.19,1.5,1.9l3.06-2.26"/><line class="cls-6" x1="409.69" y1="75.08" x2="407.19" y2="77.17"/><line class="cls-6" x1="405.64" y1="75.7" x2="407.76" y2="73.55"/><line class="cls-6" x1="404.05" y1="74.62" x2="405.64" y2="72.85"/><path class="cls-6" d="M405.2,75.36v5.47s-4.75,10.75-12.63,0l-.55-4.02"/><ellipse class="cls-1" cx="401.19" cy="77.08" rx="1.5" ry="1" transform="translate(63 306.26) rotate(-45)"/><path d="M428.59,71.35c-14.16-2.73-17.84-17.27-17.84-17.27-14,4-20-9-20-9-18,7-30-7-30-7,1,15-15,23-15,23,5,17-10.75,26.26-10.75,26.26,0,0-10.25-57.26,46.25-63.26,0,0,38.99-1.71,47.25,46.14l.1,1.13Z"/><polygon class="cls-3" points="374.74 108.08 378.74 112.08 383.74 112.08 387.74 108.08 383.74 106.08 381.24 107.43 378.74 106.08 374.74 108.08"/><path class="cls-5" d="M381.24,127.08s-15.5,30-49.5,26c0,0-14,19-42,11,0,0-51,85,14,187,0,0,75.34,7,152.17,0,0,0,66.83-90,14.83-188,0,0-23,12-41-10,0,0-33,5-48.5-26Z"/><ellipse class="cls-4" cx="380.74" cy="130.08" rx="4" ry="3"/><path class="cls-6" d="M352.24,68.58s11-6,20-1"/><path class="cls-6" d="M389.24,69.58s11-6,20-1"/><path class="cls-12" d="M486.22,83.42l-19.72,38.34,7.16,26.03-5.06,10.33,12.42,6.72,5.83-10.76,24.25-7.45,21.14-39.05-46.02-24.16Zm-2.97,39.41s-5.15,.47-5.59-3.03l11.31-23.27s5.7-2.37,5.92,3.2l-11.64,23.1Zm6.14,4.05l11.31-23.28s5.69-2.37,5.91,3.2l-11.64,23.1s-5.15,.47-5.58-3.02Zm18.01,9.75s-5.15,.47-5.59-3.03l11.32-23.27s5.69-2.37,5.91,3.2l-11.64,23.1Z"/><g><polygon class="cls-8" points="467.54 157.18 482.17 165.09 432.09 262.9 415.25 253.78 467.54 157.18"/><ellipse class="cls-10" cx="472.02" cy="166.14" rx="1.28" ry="1.82" transform="translate(101.2 502.14) rotate(-61.57)"/><ellipse class="cls-10" cx="464.67" cy="180.68" rx="1.28" ry="1.82" transform="translate(84.56 503.29) rotate(-61.57)"/></g><g><polygon class="cls-8" points="275.21 160.68 293.74 150.64 360.91 267.83 339.58 279.4 275.21 160.68"/><ellipse class="cls-10" cx="287.72" cy="161.93" rx="2.31" ry="1.57" transform="translate(-42.4 156.71) rotate(-28.46)"/><ellipse class="cls-10" cx="297.77" cy="179.26" rx="2.31" ry="1.57" transform="translate(-49.44 163.59) rotate(-28.46)"/></g><path class="cls-12" d="M249.96,69.43l23.19,42.78s4.42,21.29,6.45,21.09c0,0,7.3,13.46,11.72,13.74l2.07,3.79-18.18,9.86s-2.62-27.16-16.3-32.69l-25.49-49.59,25.58,37.93s6.85,3.43,8.26-4.48l-17.3-42.42Z"/><polygon class="cls-7" points="270.72 237.6 285.24 237.58 490.55 235.53 490.42 248.41 471.84 248.41 442.24 325.58 314.04 325.58 285.24 249.58 270.83 249.89 270.72 237.6"/><g><path class="cls-2" d="M30.84,404.74c-1.69-.13-2.94-.64-3.79-1.51-.85-.88-1.35-1.8-1.49-2.76-.08-.51-.01-1.12,.19-1.83-.02,.06-.04,.13-.06,.19-2.41-13.43-10.08-25.94-17.04-39.33-.17,.1-.32,.14-.44,.13-.12-.01-.28,0-.49,.03-1.44,.25-2.8,.1-4.06-.43-1.27-.53-2.18-1.29-2.73-2.31-.71-1.32-.54-2.77,.49-4.48,1.03-1.71,2.51-3.44,4.44-5.2,1.92-1.76,4.02-3.44,6.28-4.98,2.27-1.54,4.27-2.67,6.01-3.29,3.15-1.13,6.19-1.47,9.16-.89,2.97,.57,5.72,1.79,8.26,3.58,2.54,1.79,4.76,3.97,6.64,6.43,1.88,2.46,3.27,4.87,4.15,7.18,1.14,3,1.6,5.99,1.38,8.89-.22,2.9-1.01,5.3-2.36,7.3,3.98,1.67,7.29,3.87,9.87,6.48,2.57,2.61,4.32,5.31,5.2,8.06,.58,1.81,.77,3.6,.55,5.37-.22,1.77-.79,3.4-1.7,4.89-.91,1.49-2.1,2.82-3.57,3.99-1.46,1.17-3.09,2.08-4.85,2.73-2.2,.72-4.58,1.21-7.12,1.47-2.54,.26-5.07,.39-7.59,.39-.9,0-1.78,0-2.62,0-.84,0-1.71-.03-2.62-.1-.03,0-.06,0-.1,0Zm-7-35.8c.94-.08,1.85-.14,2.74-.18,.89-.04,1.81-.06,2.78-.07,.84-.14,1.82-.49,2.95-1.06,1.13-.57,2.14-1.31,3.03-2.23,.89-.92,1.51-2.03,1.86-3.34,.35-1.31,.19-2.81-.5-4.48-.69-1.67-1.62-3.08-2.78-4.19-1.17-1.11-2.44-1.95-3.83-2.51-1.39-.56-2.8-.9-4.24-1.02-1.44-.12-2.8-.02-4.08,.27-2.16,.5-4.05,1.37-5.68,2.53,2.53,5.7,5.21,11.08,7.76,16.28Zm21.47,11.5c-1.82-.9-3.68-1.56-5.54-2.01-1.87-.44-3.78-.72-5.72-.84-.87,.17-1.78,.32-2.73,.46-.95,.14-1.96,.22-3.02,.27,2.74,6.06,5.02,11.98,6.34,18.01,1.43,0,3.2-.09,5.32-.25,2.11-.16,4.09-.57,5.93-1.22,1.84-.65,3.32-1.6,4.42-2.87,1.09-1.27,1.32-3.01,.58-5.24-.44-1.31-1.13-2.52-2.06-3.6-.93-1.09-2.11-1.99-3.52-2.69Z"/><path class="cls-2" d="M91.62,395.48c.72,0,1.33-.02,1.85-.06,.51-.03,1.12-.09,1.83-.15,.13,0,.26,0,.39,0,1.86-.14,3.39,.25,4.54,1.17,1.16,.91,1.81,1.92,1.94,3.02,.11,.91-.18,1.78-.85,2.62-.68,.84-1.79,1.42-3.33,1.75-1.16,.07-2.36,.1-3.59,.1-1.23,0-2.46,0-3.69,0-4.28,0-8.56,0-12.83,0-1.64-.26-2.87-.8-3.72-1.64-.85-.84-1.34-1.74-1.47-2.7-.15-1.09,.12-2.04,.82-2.85,.7-.81,1.88-1.28,3.54-1.42,.98,0,1.8-.02,2.48-.06,.68-.03,1.48-.02,2.4,.04-2.66-13.9-9.37-28.72-16.14-51.27-1.83,.33-3.65,.67-5.48,1.01-1.82-.09-3.34-.71-4.56-1.86-1.22-1.16-2.09-2.55-2.59-4.24-.5-1.68-.51-3.34-.02-4.97,.49-1.63,1.59-2.85,3.28-3.59,7-2.01,14.01-3.97,21.04-5.85,1.64,.57,3.02,1.61,4.12,3.1,1.1,1.49,1.86,3.08,2.26,4.74,.44,1.79,.46,3.52,.07,5.18-.39,1.66-1.29,2.89-2.69,3.73-1.79,.31-3.59,.63-5.38,.95,6.74,24.02,13.26,39.21,15.79,53.25Z"/><path class="cls-2" d="M112.5,396.61c-.61-1-.99-1.93-1.15-2.81-.22-1.21,0-2.22,.68-3.02,.68-.8,1.67-1.21,2.98-1.22,.72,0,1.42,.13,2.1,.4,.68,.28,1.4,.66,2.15,1.14,2.86,2.2,5.45,3.79,7.88,4.82,2.43,1.03,5.19,1.54,8.31,1.53,3.51,0,5.94-.76,7.25-2.28,1.31-1.53,1.83-3.5,1.49-6.02-.4-2.45-1.32-4.54-2.7-6.2-1.39-1.66-2.98-2.99-4.76-3.93-1.78-.95-3.63-1.66-5.54-2.11-1.91-.46-3.59-.79-5.04-1-2.38-.44-4.76-1.09-7.17-1.95-2.4-.86-4.65-2.04-6.75-3.55-2.1-1.51-4-3.44-5.71-5.87-1.71-2.43-3.06-5.47-4.06-9.36-1.29-4.95-1.69-9.69-1.11-14.08,.57-4.38,1.75-8.42,3.55-11.87,1.8-3.45,4.01-6.38,6.64-8.59,2.62-2.2,5.38-3.7,8.25-4.33,2.39-.53,4.65-.42,6.77,.33,2.12,.76,4.28,2.13,6.47,4.07,1.19,1.12,2.17,2.52,2.93,4.17,.76,1.65,1.3,3.31,1.61,4.96,.23,1.2,.34,2.52,.34,3.94,0,1.42-.17,2.6-.49,3.58-.33,.98-.82,1.71-1.48,2.21-.66,.5-1.5,.46-2.53-.11-1.99-.87-3.96-1.64-5.92-2.29-1.95-.65-3.88-.84-5.78-.57-1.43,.21-2.84,.7-4.25,1.45-1.41,.76-2.59,1.88-3.55,3.33-.96,1.45-1.65,3.18-2.07,5.14-.42,1.96-.35,4.31,.19,6.97,.43,2.22,1.38,3.96,2.83,5.33,1.45,1.37,2.93,2.43,4.42,3.2,1.49,.77,2.82,1.3,3.98,1.58,1.16,.29,1.7,.43,1.64,.43,2.96,.74,5.74,1.52,8.34,2.33,2.59,.81,5.6,2.33,8.98,4.45,2.98,1.86,5.5,4.42,7.5,7.46,1.99,3.04,3.32,6.22,3.93,9.47,.62,3.32,.5,6.03-.29,8.3-.78,2.27-2.07,4.1-3.78,5.54-1.71,1.45-3.75,2.54-6.06,3.3-2.31,.75-4.74,1.17-7.26,1.24-2.2,.07-4.42-.13-6.67-.58-2.25-.46-4.39-1.11-6.44-1.96-2.05-.85-3.97-1.86-5.77-3.04-1.8-1.18-3.38-2.46-4.76-3.85l-.11-.1Z"/><path class="cls-2" d="M189.21,301.58c1.56,1.22,2.87,3.12,3.92,5.6,1.05,2.48,1.7,4.97,1.96,7.43,.3,2.84,.2,5.29-.31,7.42-.51,2.13-1.49,3.67-2.93,4.68-5,.64-10,1.29-14.99,1.97,3.06,19.58,5.79,33.76,7.88,45.03,2.1,11.26,3.52,19.57,4.01,27.44,.04,1.72-.46,2.96-1.44,3.75-.99,.79-2.07,1.18-3.24,1.18-1.1,0-2.13-.37-3.08-1.12-.96-.76-1.56-1.88-1.85-3.4-1-15.87-5.98-33.16-12.39-71.66-5.07,.62-10.14,1.27-15.21,1.93-1.84-.53-3.33-1.72-4.47-3.62-1.15-1.91-1.92-4.15-2.3-6.79-.39-2.65-.33-5.21,.19-7.68,.51-2.46,1.73-3.96,3.65-4.34,7.2-1.45,13.25-2.6,18.14-3.51,4.88-.91,8.87-1.67,11.95-2.32,3.09-.65,5.44-1.11,7.06-1.39,1.62-.28,2.77-.47,3.46-.59Z"/><path class="cls-2" d="M224.05,400.79c.02,1.72-.48,2.96-1.46,3.75-.99,.79-2.07,1.18-3.24,1.18-1.1,0-2.13-.37-3.08-1.12-.96-.75-1.56-1.87-1.83-3.39-.81-15.44-4.7-32.77-10.08-72.49-1.07-.75-2.07-2.03-3.01-3.89-.94-1.85-1.58-4.05-1.92-6.65-.54-4.09-.38-7.81,.48-11.03,2.37-6.34,5.21-12.01,8.53-16.57,3.32-4.56,6.93-7.37,10.83-8.02,3.27-.56,6.48,.43,9.61,2.92,3.13,2.48,6.19,6.97,9.14,12.98,3.61,7.07,6.4,14.35,8.36,21.52,1.96,7.18,3.28,13.94,3.96,20.25,.54,5.05,.71,9.57,.51,13.68-.2,4.11-.74,7.66-1.6,10.79-.86,3.13-2.01,5.78-3.45,8.08-1.44,2.3-3.16,4.09-5.16,5.49,6.24,8,12.09,14.44,17.57,20.36,.91,1.21,1.37,2.27,1.41,3.2,.04,1.25-.37,2.25-1.24,3-.86,.75-1.92,1.13-3.15,1.13-.71,0-1.43-.11-2.14-.34-.72-.23-1.37-.67-1.96-1.32-.6-.72-1.76-2.02-3.54-3.95-1.78-1.93-3.77-4.03-5.99-6.37-2.22-2.34-4.34-4.65-6.33-6.92-2-2.28-3.34-3.92-3.98-4.76-3,.71-5.99,1.11-9,1.22,.88,6.55,1.49,12.04,1.77,17.27Zm9.56-81.07c-1.92-3.09-3.88-5.26-5.84-6.36-1.96-1.1-3.91-1.55-5.83-1.33-3.3,.37-6.2,2.37-8.71,5.73,2.91,23.98,5.42,40.71,7.31,53.53,2.22-.25,4.44-.6,6.67-1.07,2.23-.47,4.36-1.45,6.42-3.03,1.29-.8,2.43-2.02,3.41-3.73,.98-1.72,1.79-3.7,2.44-6.01,.65-2.31,1.07-4.92,1.25-7.9,.18-2.97,.09-6.03-.27-9.16-.41-3.59-1.16-7.19-2.24-10.71-1.08-3.52-2.61-6.87-4.61-9.95Z"/><path class="cls-2" d="M319.07,373.1c-.36,3.65-.98,7.14-1.86,10.47-.88,3.33-2.01,6.22-3.37,8.85-1.37,2.62-3,4.85-4.88,6.81-1.89,1.96-4,3.4-6.32,4.38-2,.79-3.95,1.44-5.86,1.97-1.91,.52-3.87,.79-5.88,.79-1.69,0-3.39-.25-5.11-.77-1.72-.52-3.46-1.07-5.22-1.65-2.74-.98-5.06-2.39-6.99-4.3-1.93-1.91-3.55-4.09-4.88-6.66-1.33-2.57-2.42-5.45-3.27-8.8-.85-3.35-1.5-7-1.94-11.06-.15-1.42-.29-2.94-.4-4.59-.11-1.64-.19-3.29-.24-4.95-.06-3.67,.09-7.96,.47-13.15,.38-5.2,.94-10.8,1.7-16.88,.76-6.07,1.71-12.29,2.88-18.51,1.17-6.22,2.51-11.82,4.04-16.38,2.02-5.53,4.33-10.14,6.94-13.46,2.61-3.33,5.43-5.23,8.43-5.52,4.82-.52,9.64,3.73,14.36,11.82,4.71,8.04,8.69,19.23,11.86,31.4,1.52,6.18,2.71,12.26,3.56,18.1,.86,5.85,1.43,11.05,1.72,15.74,.19,3.09,.31,5.97,.35,8.69,.04,2.72,0,5.26-.11,7.66Zm-20.84,22.64c2.27-1.34,4.19-3.12,5.74-5.49,1.55-2.37,2.77-5.09,3.66-8.34,.89-3.24,1.45-6.91,1.67-11.18,.22-4.27,.17-8.82-.17-13.6-.24-3.45-.66-7.12-1.26-11.01-.6-3.89-1.4-7.85-2.41-11.82-2.04-7.26-4.61-13.5-7.67-17.83-3.06-4.35-6.16-6.59-9.25-6.36-1.78,.12-3.43,1.16-4.95,3.04-1.51,1.88-2.9,4.39-4.17,7.42-1.46,4.02-2.66,8.74-3.61,13.85-.95,5.12-1.66,10.1-2.15,14.9-.49,4.8-.77,9.26-.85,13.43-.08,4.16,.03,7.73,.34,10.87,.39,3.95,1.05,7.33,1.98,10.33,.93,3,2.13,5.41,3.65,7.42,1.51,2.01,3.31,3.52,5.41,4.63,2.1,1.11,4.57,1.65,7.42,1.64,1.1,0,2.24-.17,3.43-.52,1.18-.35,2.25-.8,3.19-1.36Z"/><path class="cls-2" d="M372.46,404.24c-1.68-.13-2.91-.63-3.7-1.51-.78-.88-1.18-1.82-1.19-2.82,0-.53,.15-1.17,.46-1.93-.03,.07-.06,.14-.09,.2-.2-14.3-.86-32.18-1.88-72.7-.2,.2-.36,.25-.46,.15-.11-.09-.26-.14-.47-.14-1.46,.02-2.66-1.05-3.63-3.31-.97-2.27-1.5-5.15-1.6-8.79-.13-4.7,.58-9.48,2.16-14.29,1.58-4.81,3.54-9.21,5.9-13.05,2.36-3.83,4.84-7.01,7.42-9.41,2.59-2.4,4.8-3.65,6.62-3.68,3.29-.06,6.29,2.04,8.94,6.11,2.65,4.05,4.92,9.21,6.78,15.14,1.86,5.93,3.28,12.13,4.26,18.39,.98,6.27,1.46,11.84,1.47,16.88,.01,6.52-.66,12.47-1.98,17.92-1.33,5.45-3.04,9.65-5.15,13.01,3.22,3.35,5.6,7.24,7.16,11.33,1.56,4.1,2.33,7.92,2.33,11.5,0,2.36-.34,4.56-1.02,6.65-.68,2.09-1.62,3.91-2.82,5.53-1.2,1.62-2.6,3.02-4.22,4.23-1.61,1.21-3.33,2.13-5.14,2.79-2.26,.73-4.67,1.22-7.22,1.48-2.55,.27-5.09,.4-7.61,.41-.91,0-1.78,0-2.62,0-.84,0-1.71-.03-2.62-.09h-.1Zm4.06-51.52c.94,0,1.84,.02,2.71,.09,.87,.07,1.77,.17,2.71,.31,.87-.14,1.96-.68,3.29-1.64,1.32-.95,2.6-2.25,3.82-3.94,1.22-1.69,2.26-3.81,3.11-6.46,.85-2.64,1.27-5.82,1.23-9.65-.03-3.84-.4-7.34-1.11-10.36-.71-3.02-1.62-5.59-2.74-7.62-1.12-2.03-2.34-3.62-3.66-4.73-1.32-1.1-2.64-1.66-3.94-1.64-2.2,.02-4.29,1.2-6.24,3.42,.31,17.22,.58,30.96,.82,42.21Zm16.27,22.33c-1.46-1.42-3.03-2.57-4.69-3.37-1.66-.81-3.42-1.39-5.27-1.71-.92,.23-1.88,.42-2.86,.59-.99,.17-2.01,.25-3.07,.26,.22,10.35,.37,17.98,.46,24.65,1.43,0,3.22-.09,5.36-.28,2.14-.18,4.2-.63,6.18-1.35,1.98-.73,3.68-1.81,5.1-3.3,1.42-1.5,2.13-3.58,2.11-6.51-.01-1.72-.29-3.38-.82-4.94-.54-1.56-1.37-2.92-2.5-4.04Z"/><path class="cls-2" d="M463.74,399.92c-.16,1.66-.67,2.87-1.55,3.69-.88,.81-1.94,1.22-3.17,1.22-.91,0-1.8-.26-2.67-.77-.87-.52-1.56-1.32-2.07-2.44-.29-2.95-.74-5.92-1.35-9.08-.61-3.15-1.37-6.62-2.3-10.63-4.13,0-8.26,.04-12.39,.12-4.13,.09-8.29,.13-12.48,.13-.07,0-.13,0-.2,0-.84,3.74-1.6,6.94-2.31,9.8-.71,2.87-1.36,5.72-1.96,8.63-.53,1.46-1.21,2.5-2.05,3.15-.85,.65-1.75,.98-2.72,.98-1.36,0-2.54-.53-3.55-1.6-1.01-1.07-1.31-2.49-.92-4.31,2.1-9.62,4.69-20.7,7.92-38.2,3.23-17.45,7.42-41.5,12.79-76.37l-.11,.39c.63-5.5,1.91-9.26,3.83-10.87-.04,0-.07,0-.11,0,1.93-2.49,3.6-.95,4.97,4.3,1.63,6.6,3.11,13.56,4.44,20.64,1.33,7.08,2.54,13.87,3.64,20.31,1.1,6.45,2.1,12.4,3.02,17.91,.91,5.52,1.77,10.28,2.57,14.49,.51,2.76,1.04,5.7,1.6,8.72,.56,3.03,1.08,5.82,1.58,8.41,.73,0,1.52-.02,2.39-.07,.86-.05,1.66-.07,2.39-.07,1.36,.8,2.34,1.86,2.94,3.15,.6,1.29,.87,2.64,.81,4.03-.06,1.4-.48,2.66-1.25,3.82-.77,1.16-1.92,1.94-3.44,2.38-.39,0-.79,0-1.18,0,1.38,6.95,2.32,12.7,2.88,18.13Zm-21.15-57.63c-.72-3.57-1.46-7.37-2.22-11.42-.76-4.04-1.52-7.86-2.27-11.33-1.84,10.34-3.52,19.45-5.04,27.51-1.52,8.06-3,15.28-4.42,21.72,3.37,0,6.6-.04,9.67-.14,3.08-.1,6.3-.15,9.68-.13-.7-3.28-1.43-6.67-2.2-10.11-.77-3.44-1.54-7.33-2.29-11.82-.3-1.39-.6-2.82-.9-4.28Z"/><path class="cls-2" d="M479.53,404.01c-1.68-.13-2.91-.62-3.67-1.5-.77-.88-1.14-1.81-1.12-2.81,.01-.53,.19-1.16,.53-1.91l-.1,.2c.35-14.2,1.54-31.85,3.34-71.51-.22,.18-.37,.23-.47,.13-.1-.1-.25-.15-.46-.16-1.45-.05-2.59-1.16-3.39-3.43-.81-2.27-1.15-5.14-1-8.72,.19-4.63,1.21-9.28,3.09-13.87,1.88-4.59,4.11-8.73,6.7-12.25,2.59-3.52,5.25-6.37,7.97-8.43,2.72-2.06,5-3.04,6.81-2.88,3.29,.27,6.14,2.59,8.55,6.69,2.41,4.1,4.36,9.17,5.86,14.91,1.5,5.74,2.52,11.68,3.09,17.64,.57,5.96,.68,11.24,.34,15.99-.44,6.15-1.53,11.76-3.26,16.89-1.73,5.14-3.77,9.11-6.13,12.3,2.96,3.28,5.04,7.03,6.28,10.98,1.24,3.96,1.72,7.64,1.46,11.12-.17,2.29-.66,4.44-1.48,6.48-.81,2.04-1.85,3.83-3.13,5.43-1.28,1.6-2.73,2.98-4.39,4.17-1.65,1.19-3.39,2.11-5.21,2.76-2.28,.72-4.69,1.21-7.25,1.47-2.56,.26-5.1,.4-7.62,.4-.91,0-1.78,0-2.62,0-.84,0-1.71-.03-2.62-.09-.03,0-.06,0-.1,0Zm7.44-50.6c.94,.02,1.84,.07,2.7,.16,.86,.09,1.76,.21,2.69,.36,.88-.12,2.01-.61,3.41-1.5,1.4-.89,2.77-2.1,4.11-3.69,1.35-1.59,2.54-3.59,3.58-6.09,1.04-2.5,1.68-5.51,1.92-9.17,.24-3.66,.11-7.02-.4-9.92-.51-2.91-1.25-5.42-2.23-7.42-.98-2.01-2.1-3.6-3.34-4.74-1.25-1.14-2.52-1.76-3.83-1.83-2.2-.12-4.36,.86-6.45,2.89-.82,16.67-1.55,30-2.17,40.96Zm14.54,21.94c-1.35-1.39-2.83-2.52-4.42-3.32-1.6-.8-3.31-1.38-5.14-1.73-.94,.21-1.91,.39-2.91,.54-1,.15-2.03,.22-3.09,.21-.59,10.12-1.01,17.64-1.24,24.24,1.43,0,3.22-.09,5.37-.27,2.15-.18,4.23-.62,6.25-1.33,2.02-.71,3.77-1.77,5.29-3.24,1.51-1.47,2.36-3.51,2.54-6.36,.11-1.68-.04-3.29-.46-4.81-.42-1.52-1.15-2.85-2.19-3.94Z"/><path class="cls-2" d="M569.18,306.26c.79-4.62,1.77-8.22,2.93-10.48,1.16-2.27,2.33-3.36,3.51-3.19,1.11,.15,2.06,1.48,2.84,3.88,.78,2.39,1.13,5.82,1.04,10.05-1.38,12.77-2.8,24.45-4.21,34.86-1.41,10.41-2.8,18.75-4.17,25.77-1.36,7.01-2.68,12.53-3.96,17.22-1.29,4.68-2.6,8.13-4.04,10.88-.9,1.58-2.06,2.92-3.52,4.07-1.45,1.15-3.03,2.11-4.74,2.89-1.71,.78-3.5,1.36-5.39,1.75-1.89,.39-3.67,.59-5.36,.59-2.08,0-4.1-.23-6.07-.71-1.97-.48-3.81-1.18-5.5-2.12-1.69-.94-3.15-2.13-4.35-3.6-1.2-1.47-2.07-3.21-2.59-5.28-1.16-4.31-1.67-9.41-1.48-16.22,.2-6.83,.74-15,1.62-25.41,.29-3.38,.61-6.97,.95-10.81,.35-3.84,.69-7.84,1.01-12,.3-3.8,.62-7.76,.96-11.88,.34-4.12,.67-8.4,.99-12.86,.68-4.65,1.57-8.32,2.67-10.74,1.1-2.43,2.24-3.62,3.41-3.49,1.1,.11,2.07,1.4,2.89,3.77,.83,2.37,1.24,5.9,1.24,10.36-.29,3.76-.61,7.76-.94,11.89-.33,4.13-.71,8.2-1.11,12.18-.45,4.52-.92,9.25-1.38,14.03-.46,4.78-.86,8.9-1.2,12.53-.52,5.51-.94,10.39-1.26,14.76-.32,4.38-.45,7.98-.4,11.06,.05,3.08,.26,5.56,.61,7.63,.36,2.06,.97,3.5,1.82,4.44,1.2,1.52,2.59,2.5,4.15,3.02,1.57,.52,3.1,.77,4.6,.77,1.83,0,3.61-.43,5.37-1.29,1.76-.87,3.46-2.25,5.14-4.23,1.04-1.33,1.98-3.58,2.93-7.14,.95-3.58,1.88-7.93,2.87-13.63,.98-5.71,2-12.39,3.07-20.52,1.07-8.13,2.11-16.73,3.07-25.35,.27-2.57,.58-5.36,.96-8.41,.37-3.05,.7-6.07,.99-9.04Z"/><path class="cls-2" d="M579.57,395.77c-.38-1.02-.52-1.98-.43-2.9,.12-1.26,.66-2.33,1.6-3.18,.94-.84,2.07-1.28,3.38-1.27,.72,0,1.37,.16,1.96,.45,.59,.3,1.17,.71,1.77,1.22,2.15,2.33,4.34,3.95,6.52,5.01,2.18,1.05,4.84,1.56,7.96,1.56,3.51,0,6.09-.74,7.78-2.26,1.69-1.53,2.76-3.51,3.25-6.07,.42-2.5,.29-4.67-.45-6.43-.74-1.76-1.79-3.21-3.16-4.29-1.38-1.07-2.91-1.92-4.6-2.5-1.69-.58-3.21-1.03-4.56-1.34-2.16-.61-4.23-1.46-6.22-2.6-1.99-1.14-3.68-2.65-5.06-4.62-1.38-1.97-2.36-4.48-2.92-7.71-.56-3.23-.48-7.28,.28-12.52,.94-6.66,2.58-13.11,4.89-18.73,2.31-5.63,4.95-10.54,7.91-14.29,2.95-3.76,6.04-6.54,9.25-8.13,3.2-1.59,6.26-2.15,9.15-1.66,2.41,.4,4.49,1.49,6.24,3.19,1.74,1.7,3.33,4.04,4.76,6.91,.76,1.63,1.21,3.45,1.38,5.45,.17,2,.11,3.91-.16,5.75-.2,1.34-.55,2.76-1.06,4.26-.51,1.5-1.09,2.72-1.76,3.68-.67,.97-1.41,1.63-2.23,2.02-.82,.38-1.61,.15-2.37-.71-1.58-1.43-3.17-2.77-4.79-4.03-1.62-1.25-3.38-2.01-5.29-2.21-1.43-.16-2.96,.02-4.58,.54-1.62,.51-3.18,1.55-4.65,3.07-1.48,1.52-2.82,3.49-4.03,5.83-1.21,2.34-2.12,5.28-2.73,8.66-.53,2.82-.38,5.11,.43,6.97,.81,1.87,1.77,3.31,2.89,4.4,1.11,1.09,2.18,1.84,3.18,2.3,1,.45,1.47,.67,1.41,.67,2.57,1.15,4.95,2.29,7.15,3.42,2.19,1.12,4.5,3.02,6.93,5.5,2.16,2.16,3.58,4.96,4.34,8.15,.76,3.2,.85,6.44,.34,9.71-.52,3.35-1.4,6.03-2.71,8.28-1.31,2.24-2.88,4.04-4.78,5.46-1.9,1.42-4,2.49-6.35,3.23-2.35,.74-4.79,1.14-7.32,1.21-2.21,.07-4.43-.12-6.66-.57-2.23-.44-4.34-1.08-6.33-1.91-1.98-.83-3.79-1.83-5.42-3-1.62-1.17-2.97-2.46-4.03-3.88-.03-.03-.06-.07-.09-.1Z"/><path class="cls-2" d="M680.66,366.99c2.02,.29,3.1,1.12,3.27,2.43,.17,1.32,.05,2.74-.34,4.25-.37,1.43-.96,2.72-1.79,3.91-.83,1.18-2.24,1.81-4.25,1.93-1.76,7.34-3.04,13.57-3.61,19.59-.2,2.05-.84,3.44-2.04,4.21-1.2,.76-2.47,1.15-3.83,1.15-1.23,0-2.31-.43-3.22-1.29-.91-.86-1.31-2.21-1.14-4.07,.55-6.04,1.77-12.31,3.46-19.79-8.3-.16-16.61-.3-24.91-.45-1.52,7.75-2.61,14.1-3.1,20.15-.17,2.07-.81,3.47-2,4.24-1.19,.77-2.43,1.15-3.73,1.15-1.23,0-2.31-.43-3.22-1.29-.91-.86-1.32-2.22-1.18-4.1,1.28-16.58,6.77-35.6,13.59-80.38,.48-3.16,1.09-5.83,1.81-7.9,.73-2.07,1.5-3.66,2.32-4.69,.82-1.03,1.66-1.71,2.52-2.04,.86-.32,1.67-.41,2.42-.24,1.1,.23,1.88,1.57,2.35,3.9,.46,2.33,.33,5.89-.39,10.39-3.24,20.33-6.23,35.38-8.66,47.32,8.39,.35,16.79,.72,25.18,1.11,2.56-10.82,5.64-24.13,8.91-41.62,.52-2.79,1.16-5.13,1.9-6.94,.75-1.8,1.53-3.16,2.36-4.03,.83-.86,1.67-1.42,2.53-1.66,.86-.24,1.67-.26,2.42-.08,1.23,.3,2.05,1.53,2.46,3.59,.41,2.06,.22,5.17-.54,9.09-3.47,17.74-6.79,31.18-9.54,42.13Z"/><path class="cls-2" d="M693.42,399.1c-.23,1.59-.84,2.77-1.89,3.53-1.05,.76-2.11,1.14-3.21,1.15-1.17,0-2.24-.36-3.21-1.09-.97-.73-1.5-1.82-1.56-3.29,.39-4.08,1.14-8.23,2.16-12.69,1.02-4.46,2.3-9.32,3.78-14.86,1.45-5.46,3.1-11.62,4.88-18.84,1.78-7.22,3.74-15.54,5.8-25.43,.97-2.95,2.07-5.18,3.31-6.55,1.24-1.37,2.47-1.91,3.69-1.6,1.02,.26,1.87,1.28,2.56,2.99,.68,1.71,.89,4.03,.63,6.84-1.63,7.41-3.25,14.04-4.81,20.04-.78,3-1.48,5.57-2.12,7.79-.64,2.23-1.34,4.72-2.1,7.39,4.31-2.27,8.52-5.37,12.69-9.56,4.17-4.19,8.12-8.53,11.8-13.02,1.23-1.69,2.55-3.46,3.95-5.3,1.4-1.84,2.91-3.69,4.51-5.54,1.87-1.78,3.55-2.47,5.04-2.06,1.35,.37,2.3,1.44,2.85,3.11,.55,1.67,.54,3.53,0,5.55-.22,.79-.73,1.98-1.53,3.54-1.67,1.85-3.27,3.57-4.81,5.17-1.54,1.6-2.97,3.21-4.29,4.79-3.63,3.88-7,7.34-10.09,10.42-3.09,3.09-6.38,5.78-9.87,8.15,.98,2.34,1.98,4.55,3.02,6.65,1.83,3.66,3.7,6.93,5.65,9.96,1.95,3.03,4.04,6.03,6.36,9.08,.91,1.46,1.32,2.69,1.2,3.7-.14,1.13-.65,2.06-1.54,2.79-.9,.73-1.98,1.09-3.28,1.09-.71,0-1.42-.11-2.12-.33-.7-.22-1.32-.65-1.86-1.28-.29-.38-.79-.98-1.48-1.8-.69-.82-1.48-1.77-2.36-2.85-.88-1.08-1.83-2.28-2.84-3.61-1.01-1.33-2.01-2.7-2.99-4.11-.98-1.41-1.89-2.82-2.74-4.24-.85-1.41-1.63-2.74-2.35-3.98-.72-1.23-1.31-2.33-1.78-3.27-.47-.94-.8-1.67-.99-2.15-.6,.22-1.15,.4-1.66,.55-.51,.15-1.17,.36-1.98,.66-.5,1.81-1.01,3.75-1.5,5.79-.49,2.05-.95,4.05-1.35,6.03-.41,1.98-.75,3.89-1.03,5.75-.28,1.86-.45,3.5-.54,4.97Z"/><path class="cls-2" d="M785.26,399.71c-.35,1.55-.95,2.72-1.88,3.5-.93,.78-1.99,1.18-3.22,1.18-.91,0-1.79-.25-2.64-.76-.85-.5-1.5-1.29-1.91-2.35-.03-2.81,0-5.51,.01-8.14,0-2.63,.03-5.31,.02-8.08-4.15-.08-8.31-.12-12.47-.13-4.17-.01-8.36-.05-12.57-.12h-.2c-1.69,2.7-3.17,5.25-4.43,7.67-1.26,2.42-2.39,5-3.28,7.76-.67,1.38-1.42,2.39-2.29,3.02-.88,.63-1.79,.95-2.77,.95-1.36,0-2.54-.52-3.48-1.56-.94-1.04-1.13-2.41-.51-4.11,3.3-8.96,9.06-17.87,15.96-27.71,6.89-9.76,15.36-20.64,24-31.77-.05,.04-.1,.07-.14,.11,1.16-1.82,2.72-2.74,4.7-2.67l-.1-.04c2.07-.22,3.53,.86,4.4,3.01,.99,2.67,1.77,5.37,2.33,8.08,.55,2.71,.95,5.29,1.21,7.79,.25,2.5,.4,4.86,.45,7.13,.05,2.27,.08,4.34,.11,6.25,0,1.25-.03,2.63-.07,4.11-.05,1.49-.11,2.93-.18,4.35,.73,.03,1.53,.06,2.41,.07,.88,.01,1.68,.04,2.41,.07,1.19,.48,1.94,1.08,2.26,1.8,.32,.73,.28,1.49-.1,2.31-.38,.82-1.1,1.58-2.14,2.29-1.05,.72-2.38,1.21-4.02,1.48-.4,0-.79-.02-1.19-.02-.23,4.68-.61,9.46-.69,14.53Zm-9.53-36.19c-.11-1.64-.24-3.34-.38-5.1-.14-1.76-.35-3.41-.63-4.9-3.22,3.73-6.37,7.49-9.36,11.21-2.99,3.72-5.97,7.51-8.83,11.33,3.39,.14,6.64,.25,9.75,.32,3.12,.07,6.37,.18,9.76,.34,.02-1.86,0-3.67-.08-5.44-.08-1.76-.11-3.67-.07-5.76-.05-.65-.11-1.32-.16-1.99Z"/></g></g></svg>